<svg width="24" height="24" viewBox="0 0 24 24" fill="none" xmlns="http://www.w3.org/2000/svg">
<path d="M21.6469 15.2625C21.7457 15.4342 21.7726 15.638 21.7217 15.8295C21.6707 16.021 21.5461 16.1845 21.375 16.2844C21.262 16.3529 21.1322 16.3886 21 16.3875C20.8672 16.3887 20.7365 16.3546 20.6212 16.2887C20.5059 16.2228 20.4102 16.1275 20.3438 16.0125L18.6188 13.0312C17.6066 13.7121 16.4927 14.2279 15.3188 14.5594L15.8625 17.6437C15.8954 17.8399 15.8499 18.0412 15.736 18.2042C15.622 18.3672 15.4487 18.4791 15.2531 18.5156H15.1219C14.9454 18.5161 14.7743 18.4544 14.6388 18.3412C14.5034 18.228 14.4122 18.0707 14.3813 17.8969L13.8469 14.8594C13.2354 14.9505 12.6182 14.9975 12 15C11.3789 15.0003 10.7586 14.9564 10.1438 14.8688L9.60939 17.9062C9.5785 18.0801 9.48729 18.2374 9.35182 18.3506C9.21635 18.4637 9.0453 18.5255 8.86877 18.525H8.73752C8.54199 18.4884 8.36862 18.3766 8.25467 18.2136C8.14072 18.0505 8.09529 17.8493 8.12814 17.6531L8.68127 14.5594C7.5036 14.23 6.38631 13.7141 5.37189 13.0312L3.63752 16.0312C3.57052 16.1436 3.47595 16.2371 3.36275 16.3027C3.24955 16.3683 3.12147 16.404 2.99064 16.4062C2.85922 16.4058 2.73022 16.3708 2.61657 16.3048C2.50292 16.2388 2.40862 16.144 2.34311 16.0301C2.27759 15.9162 2.24317 15.787 2.24329 15.6556C2.2434 15.5242 2.27805 15.3951 2.34377 15.2812L4.17189 12.1125C3.53306 11.5646 2.9462 10.9589 2.41877 10.3031C2.35644 10.2271 2.30986 10.1395 2.28175 10.0453C2.25363 9.95112 2.24454 9.85228 2.25502 9.75455C2.26549 9.65682 2.29531 9.56216 2.34273 9.47607C2.39016 9.38998 2.45425 9.31419 2.53127 9.25312C2.60668 9.19027 2.69384 9.14303 2.78768 9.11416C2.88151 9.0853 2.98015 9.07537 3.07785 9.08497C3.17555 9.09456 3.27037 9.12349 3.3568 9.17006C3.44322 9.21663 3.51953 9.27992 3.58127 9.35625C4.16811 10.0879 4.83826 10.7486 5.57815 11.325H5.58752C7.41822 12.7531 9.67829 13.5196 12 13.5C14.7469 13.5 16.8563 12.5344 18.4031 11.3344H18.4219C19.1618 10.758 19.8319 10.0973 20.4188 9.36563C20.4798 9.28861 20.5556 9.22452 20.6417 9.17709C20.7278 9.12966 20.8225 9.09984 20.9202 9.08937C21.0179 9.0789 21.1168 9.08799 21.2109 9.1161C21.3051 9.14421 21.3928 9.19079 21.4688 9.25312C21.5458 9.31419 21.6099 9.38998 21.6573 9.47607C21.7047 9.56216 21.7346 9.65682 21.745 9.75455C21.7555 9.85228 21.7464 9.95112 21.7183 10.0453C21.6902 10.1395 21.6436 10.2271 21.5813 10.3031C21.0538 10.9589 20.467 11.5646 19.8281 12.1125L21.6469 15.2625Z" fill="#2B689B"/>
</svg>
